<svg width="20" height="20" viewBox="0 0 20 20" fill="none" xmlns="http://www.w3.org/2000/svg">
<path d="M2.64062 6.2002L9.99895 10.4585L17.3073 6.22517" stroke="#ADB3BE" stroke-width="1.5" stroke-linecap="round" stroke-linejoin="round"/>
<path d="M10 18.0085V10.4502" stroke="#ADB3BE" stroke-width="1.5" stroke-linecap="round" stroke-linejoin="round"/>
<path d="M8.2755 2.06675L3.82551 4.54177C2.81717 5.10011 1.99219 6.50009 1.99219 7.65009V12.3584C1.99219 13.5084 2.81717 14.9084 3.82551 15.4668L8.2755 17.9418C9.2255 18.4668 10.7838 18.4668 11.7338 17.9418L16.1839 15.4668C17.1922 14.9084 18.0172 13.5084 18.0172 12.3584V7.65009C18.0172 6.50009 17.1922 5.10011 16.1839 4.54177L11.7338 2.06675C10.7755 1.53341 9.2255 1.53341 8.2755 2.06675Z" stroke="#ADB3BE" stroke-width="1.5" stroke-linecap="round" stroke-linejoin="round"/>
<path d="M14.1661 11.0334V7.98345L6.25781 3.41675" stroke="#ADB3BE" stroke-width="1.5" stroke-linecap="round" stroke-linejoin="round"/>
</svg>
