<svg width="1739" height="435" viewBox="0 0 1739 435" fill="none" xmlns="http://www.w3.org/2000/svg">
<g opacity="0.05">
<circle cx="217.429" cy="217.429" r="216.429" stroke="white" stroke-width="2"/>
<circle cx="217.429" cy="217.429" r="175.597" stroke="white" stroke-width="2"/>
<circle cx="217.429" cy="217.429" r="134.765" stroke="white" stroke-width="2"/>
<circle cx="217.426" cy="217.426" r="93.9336" stroke="white" stroke-width="2"/>
<circle cx="217.43" cy="217.43" r="53.1019" stroke="white" stroke-width="2"/>
<circle cx="434.858" cy="217.429" r="216.429" stroke="white" stroke-width="2"/>
<circle cx="434.859" cy="217.429" r="175.597" stroke="white" stroke-width="2"/>
<circle cx="434.859" cy="217.429" r="134.765" stroke="white" stroke-width="2"/>
<circle cx="434.855" cy="217.426" r="93.9336" stroke="white" stroke-width="2"/>
<circle cx="434.86" cy="217.43" r="53.1019" stroke="white" stroke-width="2"/>
<circle cx="869.718" cy="217.429" r="216.429" stroke="white" stroke-width="2"/>
<circle cx="869.718" cy="217.429" r="175.597" stroke="white" stroke-width="2"/>
<circle cx="869.718" cy="217.429" r="134.765" stroke="white" stroke-width="2"/>
<circle cx="869.715" cy="217.426" r="93.9336" stroke="white" stroke-width="2"/>
<circle cx="869.719" cy="217.43" r="53.1019" stroke="white" stroke-width="2"/>
<circle cx="1087.14" cy="217.429" r="216.429" stroke="white" stroke-width="2"/>
<circle cx="1087.14" cy="217.429" r="175.597" stroke="white" stroke-width="2"/>
<circle cx="1087.14" cy="217.429" r="134.765" stroke="white" stroke-width="2"/>
<circle cx="1087.14" cy="217.426" r="93.9336" stroke="white" stroke-width="2"/>
<circle cx="1087.14" cy="217.43" r="53.1019" stroke="white" stroke-width="2"/>
<circle cx="1304.57" cy="217.429" r="216.429" stroke="white" stroke-width="2"/>
<circle cx="1304.57" cy="217.429" r="175.597" stroke="white" stroke-width="2"/>
<circle cx="1304.57" cy="217.429" r="134.765" stroke="white" stroke-width="2"/>
<circle cx="1304.57" cy="217.426" r="93.9336" stroke="white" stroke-width="2"/>
<circle cx="1304.57" cy="217.43" r="53.1019" stroke="white" stroke-width="2"/>
<circle cx="1521.43" cy="217.429" r="216.429" stroke="white" stroke-width="2"/>
<circle cx="1521.43" cy="217.429" r="175.597" stroke="white" stroke-width="2"/>
<circle cx="1521.43" cy="217.429" r="134.765" stroke="white" stroke-width="2"/>
<circle cx="1521.43" cy="217.426" r="93.9336" stroke="white" stroke-width="2"/>
<circle cx="1521.43" cy="217.43" r="53.1019" stroke="white" stroke-width="2"/>
<circle cx="652.288" cy="217.429" r="216.429" stroke="white" stroke-width="2"/>
<circle cx="652.288" cy="217.429" r="175.597" stroke="white" stroke-width="2"/>
<circle cx="652.289" cy="217.429" r="134.765" stroke="white" stroke-width="2"/>
<circle cx="652.285" cy="217.426" r="93.9336" stroke="white" stroke-width="2"/>
<circle cx="652.289" cy="217.43" r="53.1019" stroke="white" stroke-width="2"/>
</g>
</svg>
