<svg width="20" height="20" viewBox="0 0 20 20" fill="none" xmlns="http://www.w3.org/2000/svg">
<path d="M5 8.33341V6.66675C5 3.90841 5.83333 1.66675 10 1.66675C14.1667 1.66675 15 3.90841 15 6.66675V8.33341" stroke="#ADB3BE" stroke-width="1.5" stroke-linecap="round" stroke-linejoin="round"/>
<path d="M10.0013 15.4167C11.1519 15.4167 12.0846 14.4839 12.0846 13.3333C12.0846 12.1827 11.1519 11.25 10.0013 11.25C8.85071 11.25 7.91797 12.1827 7.91797 13.3333C7.91797 14.4839 8.85071 15.4167 10.0013 15.4167Z" stroke="#ADB3BE" stroke-width="1.5" stroke-linecap="round" stroke-linejoin="round"/>
<path d="M14.168 18.3333H5.83464C2.5013 18.3333 1.66797 17.4999 1.66797 14.1666V12.4999C1.66797 9.16659 2.5013 8.33325 5.83464 8.33325H14.168C17.5013 8.33325 18.3346 9.16659 18.3346 12.4999V14.1666C18.3346 17.4999 17.5013 18.3333 14.168 18.3333Z" stroke="#ADB3BE" stroke-width="1.5" stroke-linecap="round" stroke-linejoin="round"/>
</svg>
